<svg height="480pt" viewBox="0 0 480 480" width="480pt" xmlns="http://www.w3.org/2000/svg"><path d="m240 0c-132.546875 0-240 107.453125-240 240s107.453125 240 240 240 240-107.453125 240-240c-.148438-132.484375-107.515625-239.851562-240-240zm0 464c-123.710938 0-224-100.289062-224-224s100.289062-224 224-224 224 100.289062 224 224c-.140625 123.652344-100.347656 223.859375-224 224zm0 0"/><path d="m384 160h-73.753906l-6.484375-25.945312c-.894531-3.558594-4.09375-6.054688-7.761719-6.054688h-112c-3.667969 0-6.867188 2.496094-7.761719 6.054688l-6.484375 25.945312h-73.753906c-4.417969 0-8 3.582031-8 8v160c0 4.417969 3.582031 8 8 8h288c4.417969 0 8-3.582031 8-8v-160c0-4.417969-3.582031-8-8-8zm-8 160h-272v-144h72c3.667969 0 6.867188-2.496094 7.761719-6.054688l6.484375-25.945312h99.507812l6.484375 25.945312c.894531 3.558594 4.09375 6.054688 7.761719 6.054688h72zm0 0"/><path d="m240 168c-39.765625 0-72 32.234375-72 72s32.234375 72 72 72 72-32.234375 72-72c-.046875-39.746094-32.253906-71.953125-72-72zm0 128c-30.929688 0-56-25.070312-56-56s25.070312-56 56-56 56 25.070312 56 56c-.035156 30.914062-25.085938 55.964844-56 56zm0 0"/></svg>