<svg height="480pt" viewBox="0 0 480 480" width="480pt" xmlns="http://www.w3.org/2000/svg"><path d="m240 0c-132.546875 0-240 107.453125-240 240s107.453125 240 240 240 240-107.453125 240-240c-.148438-132.484375-107.515625-239.851562-240-240zm0 464c-123.710938 0-224-100.289062-224-224s100.289062-224 224-224 224 100.289062 224 224c-.140625 123.652344-100.347656 223.859375-224 224zm0 0"/><path d="m288 223.945312c27.539062-20.667968 38.761719-56.636718 27.871094-89.296874-10.894532-32.660157-41.460938-54.6875-75.890625-54.6875-34.429688 0-65 22.027343-75.890625 54.6875-10.894532 32.660156.332031 68.628906 27.871094 89.296874-62.042969 20.640626-103.921876 78.667969-103.960938 144.054688v8h304v-8c-.050781-65.398438-41.945312-123.421875-104-144.054688zm-112-63.945312c-.007812-27.015625 16.945312-51.125 42.375-60.253906 25.425781-9.128906 53.84375-1.3125 71.023438 19.539062 17.175781 20.851563 19.410156 50.242188 5.582031 73.453125-13.828125 23.207031-40.738281 35.234375-67.253907 30.054688-4.070312-.796875-8.054687-1.988281-11.894531-3.5625h-.097656c-24.09375-9.78125-39.820313-33.226563-39.734375-59.230469zm152 200v-32h-16v32h-144v-32h-16v32h-47.769531c3.605469-61.242188 47.785156-112.480469 107.832031-125.054688.898438.335938 1.816406.574219 2.722656.878907 1.09375.367187 2.191406.742187 3.304688 1.0625 1.109375.320312 2.285156.585937 3.4375.855469 1.3125.3125 2.625.640624 3.953125.890624.863281.160157 1.726562.253907 2.597656.382813 1.601563.242187 3.203125.496094 4.800781.640625h.351563c2.242187.191406 4.496093.328125 6.769531.328125s4.527344-.136719 6.769531-.328125h.351563c1.597656-.144531 3.199218-.398438 4.800781-.640625.878906-.128906 1.75-.222656 2.621094-.382813 1.3125-.242187 2.601562-.570312 3.90625-.878906 1.167969-.28125 2.34375-.539062 3.503906-.875 1.160156-.335937 2.117187-.671875 3.199219-1.023437.9375-.3125 1.886718-.566407 2.816406-.910157 60.03125 12.585938 104.199219 63.820313 107.800781 125.054688zm0 0"/></svg>